# xmcd
#
# Track frame offsets:
#	150
#	22016
#	49707
#	68707
#	87734
#	109861
#	126277
#	144003
#	167675
#	183460
#	213133
#	239876
#	258619
#	275180
#	297242
#	317084
#
# Disc length: 4595 seconds
#
# Revision: 0
# Processed by: cddbd v1.5.2PL0 Copyright (c) Steve Scherf et al.
# Submitted via: dBpowerAMP V4.0
#
DISCID=fb11f110
DTITLE=sir mix - mix
DYEAR=1900
DGENRE=
TTITLE0=dd
TTITLE1=ddd
TTITLE2=ddd
TTITLE3=dddd
TTITLE4=ddddd
TTITLE5=dddddddd
TTITLE6=eeee
TTITLE7=dddddddddd
TTITLE8=e
TTITLE9=eeeee
TTITLE10=wwww
TTITLE11=q
TTITLE12=aa
TTITLE13=aas
TTITLE14=eeeeeeeeeee
TTITLE15=dddfj
EXTD=ahah
EXTT0=
EXTT1=
EXTT2=
EXTT3=
EXTT4=
EXTT5=
EXTT6=
EXTT7=
EXTT8=
EXTT9=
EXTT10=
EXTT11=
EXTT12=
EXTT13=
EXTT14=
EXTT15=
PLAYORDER=
